<svg xmlns="http://www.w3.org/2000/svg" viewBox="0 0 968.05 298.94"><defs><style>.cls-1{font-size:234.44px;fill:#ec1c24;font-family:Arial-Black, Arial Black;font-weight:800;}.cls-2{letter-spacing:-0.06em;}.cls-3{letter-spacing:0em;}</style></defs><title>waveMusicLogo</title><g id="Layer_2" data-name="Layer 2"><g id="waveMusicLogo"><path d="M802.88,170.37V128.3h-40c-1.57,4,.08,10.22-.89,15.3-.76,2.56-1.88.72-2.83,1.26V128.11H744.54c-1.1-1.88-1-4-1-6.05.33-.91.66-2.59,1-2.6,4.61-.17,9.23-.12,13.88-.12,1.67-4.53.12-10.66.9-15.31.91-3,2-1.18,3-1.7.27,5.41-.51,11.07.32,15.93h9v-7.42h2.29c1.14,1.56.58,5,1.29,7.85h27.13c1.52-3.75-.17-10,.82-15.12.75-2.55,1.87-.7,2.83-1.24.27,5.42-.53,11.11.51,17,6.72,0,13.43,0,20.13-.09.41,0,.82-1.34,1.22-2.06v-6.35h2.26c1.14-1.52.67-4.81,1.14-7.22,1.6-2.66,3.41-.71,5.12-1.29,1.53,1.5.1,10.29,3.17,8.84,1.45-.69-.12,8.86,2.39,8.2,2.15.59,1.14-4.89,1.94-7.59.68-2.19,1.78-.43,2.72-.94.2,2.59-.47,5.62.89,8.65,1.53-1.9,3.61,2.67,5.36-2.3v-6.35h2.24c1.45,1.63.27,6.93,1.95,8.5h2.06v8.51H847.51c-1.16,1.47-.77,4.71-1.06,6.76-.9,3-2,1.21-3,1.74v-8.5h-6.25c-.25-8.84-.25-8.85-3.12-6.28v6.28H810.05c-1.91,1.47.34,14.72-4,7.77v32.46C805,171.69,803.83,169.83,802.88,170.37Z"/><path d="M859.1,119.34v-6c.53-3.12,1.68-2.07,2.54-3,1.41-4.63-.18-10.64,1.22-16.49h5.61v6.57l-3.38,4.3c.83,4.64-.51,9.84,1,14.71,9-.59,18.19.93,27.33-.93V68.32h2.66c1.13,10.6,0,21.83.61,32,.65,2.86,1.51,1.67,2.29,2.1,1.64,4.48,0,10.75,1.27,16.88h21.28v8.51c-4.09,0-8.19-.06-12.29,0s-8.5-.34-12.69.31v8.18h-2.3c-1.12-1.6-.6-5-1.38-8.5H862.22v-8.51Z"/><path d="M924.69,110.84v-8.5h15.24c-.85,9.6,4.43,6.7,3.61,16.2h21.29c1.47-3.61-.26-9.94.72-14.72.58-2.32,1.4-1.27,2.5-1.41v32.83c-2.54,3.18-3.19-.53-2.69-6.95H943.43v50.59h-2.8c-.77-13.5,0-27.39-.46-40.52-.61-2.91-1.47-1.71-2.15-2-1.14-1.56-.59-5-1.45-8.5H924.69v-8.51h12.36v-8.5Z"/><path d="M812.25,51.31c-.5-9.44,2.8-13.12,4.58-16.19,1.61-2.77,1.11-7.06,2.22-8.83h5.69V76.82c-1-.53-2.07,1.3-3.38-3.11V42.43c-1.22.74-2.07-.57-2.87,3-.21,1,.29,4.34-.88,5.84Z"/><path d="M874.71,42.8V1.16c3.94-2.08,8,0,11.94-1.16,1.09,6.18.28,11.87.56,17.29-1-.53-2.07,1.3-2.88-1.4-.44-2.31,0-5.64-1.14-7.1-1.68.63-3.51-1.51-5.13,1.4-.82,10.84.56,22.07-.76,32.61Z"/><path d="M918.44,221.4v7.74l-8.74,1.2c-1.05,2.5-.12,9.3-2.6,8.07-.38-.77-1.08-1.48-1.1-2.31-.11-4.89,0-9.8,0-14.7.95-.52,2,1.25,3-1.81.76-4.5-.86-10.64,1.24-16.06,2.38,4.83,4.25,11.12,6,17.87Z"/><path d="M955.92,212.89v6.56c-1.78,3.54-3.77,1.66-5.68,1.48-1-9.06-4-12.31-6.81-19.16v-22.9h2.36c1.71,4.45.12,10.57,1,15.49,2.92,2.41,4.43,9.3,5.92,15.52C953.7,214.05,954.82,212.31,955.92,212.89Z"/><path d="M924.69,127.85v48.81c-1.09,3.45-2.18,1.71-3.13,2.21v-51Z"/><path d="M784.14,221.4h2.37c1.71,4.49.06,10.71,1.12,16.1,1.82,2.29,3.89.18,5.88.91v7.42h-9.37Z"/><path d="M921.56,178.87v40.32c-1.09,3.42-2.17,1.71-3.12,2.21,0-6.92-.11-13.85,0-20.74.15-7.28-.58-14.84.41-21.79Z"/><path d="M962.36,195.81V154.06l2.6-.78v41.45C964.22,197.18,963.11,195.3,962.36,195.81Z"/><path d="M846.6,110.84V96c1.75-5.11,3.84-.36,5.65-2.71,1.12,6.46.33,12.12.6,17.53Z"/><path d="M762.27,102.33V94.92h9.05c.84,4.85,0,10.51.32,15.92h-2.41l-1.44-8.51Z"/><path d="M824.74,76.82h3c.31,11.21.08,22.64.15,34-.94-.49-2,1.19-3.12-2.19Z"/><path d="M784.14,221.4h-3c-.3-11.21-.08-22.64-.15-34h3C784.29,198.58,784.06,210,784.14,221.4Z"/><path d="M781,187.38h-3c-.31-11.21-.08-22.64-.15-34h3C781.17,164.57,780.94,176,781,187.38Z"/><path d="M796.63,221.4V189.57c1.1-3.38,2.18-1.7,3.12-2.19v31.83C798.65,222.59,797.57,220.91,796.63,221.4Z"/><path d="M899.7,170.37h-3c-.31-11.21-.08-22.64-.15-34,.94.49,2-1.19,3.12,2.19Z"/><path d="M902.82,204.39h-3c-.31-11.21-.08-22.64-.15-34,.94.49,2-1.19,3.12,2.19Z"/><path d="M752.9,195.88V172.53c1.13-3.31,2.19-1.69,3.12-2.16v23.35C754.9,197,753.84,195.41,752.9,195.88Z"/><path d="M806,102.33V79c1.12-3.31,2.19-1.69,3.12-2.16-.19,8.53.45,17.27-.43,25.51Z"/><path d="M868.47,93.83V70.48c1.12-3.32,2.19-1.69,3.12-2.16-.2,8.52.45,17.26-.43,25.51Z"/><path d="M809.12,76.82V53.47c1.13-3.31,2.19-1.69,3.13-2.16-.2,8.52.45,17.26-.44,25.51Z"/><path d="M756,170.37V147c1.13-3.32,2.19-1.69,3.13-2.16v23.35C758,171.52,757,169.9,756,170.37Z"/><path d="M890.33,42.8H893c.89,8.25.24,17,.43,25.52-.93-.47-2,1.15-3.12-2.17Z"/><path d="M871.59,68.32V45c1.12-3.31,2.19-1.69,3.12-2.16-.19,8.53.46,17.27-.43,25.52Z"/><path d="M777.68,157.1,771,138.37c2.7-2.88,4.6-2.17,6.71-1.25Z"/><path d="M796.63,221.4v17h-3.12v-17Z"/><path d="M843.48,136.35v6.36c-1.75,5-3.83.39-5.36,2.29-1.36-3-.69-6.05-.89-8.65Z"/><path d="M859.1,136.29v6.86c-2,2.9-4.06,2.08-6.11.55-.07-2-.11-3.28-.17-5.38C854.71,134.37,857,137.27,859.1,136.29Z"/><path d="M802.88,170.37v17h-3.13v-17Z"/><path d="M749.78,212.89v-17h3.12v17Z"/><path d="M906,221.4h-2.44c-1.36-5.18-.39-11.34-.69-17H906Z"/><path d="M859.1,136.35v-8.5h3.12v8.5Z"/><path d="M837.23,136.35h-3.12v-8.5h3.12Z"/><path d="M831.05,143.69c-2.55,2.23-3.52.71-3.09-5.53.63-2.13,1.52-2.4,2.39-1.27C831.31,138.52,830.88,140.8,831.05,143.69Z"/><path d="M921.56,119.34v-8.5h3.13v8.5Z"/><ellipse cx="960.61" cy="200.14" rx="2.21" ry="6.01"/><ellipse cx="957.48" cy="208.64" rx="2.21" ry="6.01"/><ellipse cx="748.22" cy="217.14" rx="2.21" ry="6.01"/><path d="M746.72,221.23l-.23,8.08-2.22.5c-.94-2.33-.94-4.68-.25-8Z"/><rect y="119.2" width="750.19" height="9.77"/><text class="cls-1" transform="translate(0 213.69)">W<tspan class="cls-2" x="234.44" y="0">A</tspan><tspan class="cls-3" x="403.85" y="0">VE</tspan></text></g></g></svg>